<svg width="31" height="39" viewBox="0 0 31 39" fill="none" xmlns="http://www.w3.org/2000/svg">
<path d="M10.2779 38.6636C4.65286 38.631 0 27.0609 0 21.1685C0 11.5434 7.16583 9.43617 9.92753 9.43617C11.1721 9.43617 12.501 9.92864 13.6731 10.3644C14.4929 10.6684 15.3405 10.9822 15.812 10.9822C16.0942 10.9822 16.7593 10.7153 17.3463 10.4811C18.5985 9.97877 20.1566 9.35449 21.9711 9.35449C21.9743 9.35449 21.9787 9.35449 21.9818 9.35449C23.3368 9.35449 27.4447 9.6541 29.9144 13.3913L30.4929 14.2673L29.6603 14.9004C28.4709 15.8047 26.3006 17.4542 26.3006 20.7218C26.3006 24.5919 28.7584 26.0804 29.9392 26.7962C30.4604 27.1121 31 27.4379 31 28.1505C31 28.6158 27.3149 38.6058 21.9634 38.6058C20.654 38.6058 19.7284 38.2093 18.912 37.8595C18.086 37.5055 17.3733 37.2004 16.1958 37.2004C15.5989 37.2004 14.8441 37.4848 14.045 37.7865C12.953 38.1972 11.7171 38.6636 10.3145 38.6636H10.2779Z" fill="white"/>
<path d="M21.9788 0.336426C22.1004 5.11248 18.9641 8.42589 15.8314 8.21808C15.3152 4.40663 18.9637 0.336426 21.9788 0.336426Z" fill="white"/>
</svg>
