<svg width="1276" height="352" viewBox="0 0 1276 352" fill="none" xmlns="http://www.w3.org/2000/svg">
<path d="M1.70708 51C1.7071 23.3857 24.0929 1 51.7071 1H1224.29C1251.91 1 1274.29 23.3858 1274.29 51V101.562C1274.29 116.722 1266.33 130.768 1253.33 138.559V138.559C1225.6 155.174 1225.88 195.606 1253.38 212.591V212.591C1266.26 220.543 1274.29 234.715 1274.29 249.852V301C1274.29 328.614 1251.91 351 1224.29 351H51.7071C24.0929 351 1.7071 328.614 1.70708 301L1.70705 250.461C1.70704 235.269 9.80708 221.059 22.7772 213.148V213.148C50.5059 196.235 50.785 155.546 22.8336 139.004V139.004C9.73874 131.253 1.70704 117.167 1.70705 101.951L1.70708 51Z" fill="white" stroke="#BEBEBE" stroke-opacity="0.25" stroke-width="2"/>
</svg>
