<svg width="1276" height="352" viewBox="0 0 1276 352" fill="none" xmlns="http://www.w3.org/2000/svg">
<path d="M1.7071 17C1.7071 8.16344 8.87055 1 17.7071 1H1258.29C1267.13 1 1274.29 8.16344 1274.29 17V102.201C1274.29 116.964 1266.54 130.644 1253.88 138.231L1251.74 139.512C1224.73 155.692 1224.47 194.738 1251.26 211.278L1254.36 213.192C1266.75 220.842 1274.29 234.366 1274.29 248.929V335C1274.29 343.837 1267.13 351 1258.29 351H17.7071C8.87056 351 1.7071 343.837 1.7071 335L1.70705 249.578C1.70704 234.934 9.33446 221.348 21.8363 213.722L24.8251 211.899C51.8738 195.401 51.6118 156.036 24.3459 139.899L22.3155 138.697C9.54178 131.137 1.70704 117.396 1.70705 102.553L1.7071 17Z" fill="white" stroke="#BEBEBE" stroke-opacity="0.25" stroke-width="2"/>
</svg>
