<svg width="54" height="27" viewBox="0 0 54 27" fill="none" xmlns="http://www.w3.org/2000/svg">
<path d="M17.3194 0.120117C16.6691 0.120117 16.1719 0.654563 16.1719 1.26536V19.8564C16.1719 20.5054 16.7074 21.0017 17.3194 21.0017C17.9697 21.0017 18.4669 20.4672 18.4669 19.8564V1.26536C18.4669 0.616388 17.9314 0.120117 17.3194 0.120117Z" fill="white"/>
<path d="M7.18233 7.56419C5.53755 7.56419 4.00752 8.13681 2.74524 9.2057V1.26536C2.74524 0.616389 2.20973 0.120117 1.59772 0.120117C0.985706 0.120117 0.450195 0.654563 0.450195 1.26536V14.2829C0.450195 16.0772 1.13871 17.7568 2.43924 19.0548C3.70151 20.3145 5.4228 21.0399 7.22059 21.0399C9.01837 21.0399 10.7014 20.3527 12.0019 19.0548C13.2642 17.795 13.991 16.0772 13.991 14.2829C13.991 12.4887 13.3025 10.809 12.0019 9.5111C10.7014 8.25134 8.98012 7.56419 7.18233 7.56419ZM7.18233 18.7112C4.73428 18.7112 2.74524 16.7261 2.74524 14.2829C2.74524 11.8398 4.73428 9.85467 7.18233 9.85467C9.63039 9.85467 11.6194 11.8398 11.6194 14.2829C11.6194 16.7261 9.63039 18.7112 7.18233 18.7112Z" fill="white"/>
<path d="M45.6631 9.51096C44.4008 8.2512 42.6795 7.52588 40.8817 7.52588C39.0839 7.52588 37.4009 8.21302 36.1004 9.51096C34.8381 10.7707 34.1113 12.4886 34.1113 14.2828C34.1113 16.077 34.7998 17.7567 36.1004 19.0546C37.3626 20.3144 39.0839 21.0397 40.8817 21.0397C41.838 21.0397 42.756 20.8489 43.5975 20.4671C44.439 20.0854 45.1658 19.5891 45.7778 18.9401C46.2368 18.482 46.1986 17.7567 45.7396 17.2986C45.2806 16.8405 44.5538 16.8787 44.0948 17.3368C43.2533 18.2148 42.1057 18.7111 40.8817 18.7111C38.4337 18.7111 36.4446 16.726 36.4446 14.2828C36.4446 11.8396 38.4337 9.85454 40.8817 9.85454C42.909 9.85454 44.6303 11.2288 45.1276 13.0994H38.9692C38.3189 13.0994 37.8217 13.6338 37.8217 14.2446C37.8217 14.8936 38.3572 15.3899 38.9692 15.3899H46.4663C47.1166 15.3899 47.6139 14.8554 47.6139 14.2446C47.6139 12.4886 46.9253 10.8089 45.6631 9.51096Z" fill="white"/>
<path d="M30.7453 7.56396C30.0951 7.56396 29.5978 8.09841 29.5978 8.70921V15.3898C29.5978 17.2222 28.106 18.6728 26.3082 18.6728C24.4722 18.6728 23.0187 17.184 23.0187 15.3898V8.70921C23.0187 8.06024 22.4832 7.56396 21.8712 7.56396C21.2209 7.56396 20.7236 8.09841 20.7236 8.70921V15.3898C20.7236 18.4819 23.2482 21.0015 26.3465 21.0015C29.4448 21.0015 31.9694 18.4819 31.9694 15.3898V8.70921C31.9311 8.06024 31.3956 7.56396 30.7453 7.56396Z" fill="white"/>
<path d="M51.208 21.9555C51.0932 21.9555 50.9785 21.9174 50.8637 21.841C50.596 21.6501 50.5195 21.2684 50.7107 20.963C51.5522 19.7032 52.1643 18.2908 52.5085 16.802C52.585 16.4584 52.9293 16.2675 53.2353 16.3439C53.5795 16.4202 53.7708 16.7638 53.6943 17.0692C53.35 18.7107 52.6615 20.2759 51.7053 21.6501C51.6288 21.841 51.4375 21.9555 51.208 21.9555Z" fill="white"/>
<path d="M51.3592 8.05947C51.168 8.05947 50.9767 7.94494 50.8237 7.79224C49.9822 6.4943 48.9112 5.42541 47.6489 4.54739C47.3811 4.35652 47.3046 3.97477 47.4959 3.66937C47.6871 3.40215 48.0696 3.3258 48.3757 3.51667C49.7527 4.47104 50.9385 5.69263 51.8565 7.1051C52.0477 7.37232 51.9712 7.79224 51.6652 7.94494C51.5887 8.02129 51.474 8.05947 51.3592 8.05947Z" fill="white"/>
<path d="M53.3881 15.0078C53.0439 15.0078 52.7761 14.7405 52.7761 14.397C52.7761 12.87 52.5083 11.3812 51.9346 9.93051C51.8198 9.62512 51.9728 9.24337 52.2788 9.12884C52.5849 9.01432 52.9674 9.16702 53.0821 9.47242C53.6941 11.0376 54.0001 12.7173 54.0001 14.397C54.0001 14.7405 53.7324 15.0078 53.3881 15.0078Z" fill="white"/>
<path d="M49.1419 9.20551C48.9506 9.20551 48.7594 9.12916 48.6446 8.93828C48.0326 8.06026 47.3058 7.33494 46.4643 6.72415C46.1966 6.53328 46.1201 6.15153 46.3113 5.84613C46.5026 5.57891 46.8851 5.50256 47.1911 5.69343C48.1474 6.38058 48.9889 7.25859 49.6391 8.21296C49.8304 8.48019 49.7539 8.86193 49.4861 9.09098C49.3714 9.16733 49.2566 9.20551 49.1419 9.20551Z" fill="white"/>
<path d="M50.9012 14.7394C50.5569 14.7394 50.2892 14.4722 50.2892 14.1286C50.2892 13.0979 50.0979 12.0672 49.7154 11.0746C49.6007 10.7692 49.7537 10.3875 50.0979 10.273C50.4039 10.1584 50.7864 10.3111 50.9012 10.6547C51.3219 11.7618 51.5132 12.9452 51.5514 14.1286C51.5514 14.4722 51.2837 14.7394 50.9012 14.7394C50.9394 14.7394 50.9394 14.7394 50.9012 14.7394Z" fill="white"/>
<path d="M49.3322 20.3519C49.2174 20.3519 49.1027 20.3137 48.9879 20.2373C48.6819 20.0465 48.6054 19.6647 48.7967 19.3975C49.3704 18.5195 49.7912 17.5651 50.0207 16.5344C50.0972 16.1908 50.4414 15.9999 50.7857 16.0763C51.13 16.1526 51.3212 16.4962 51.2447 16.8398C50.977 17.985 50.4797 19.0921 49.8677 20.0846C49.7147 20.2373 49.5234 20.3519 49.3322 20.3519Z" fill="white"/>
<path d="M45.7757 3.4027C45.6992 3.4027 45.6227 3.4027 45.5462 3.36452C44.1309 2.75373 42.6391 2.44833 41.1091 2.41016C40.7648 2.41016 40.4971 2.10476 40.4971 1.76119C40.4971 1.41761 40.7648 1.15039 41.1091 1.15039C42.7921 1.18857 44.4369 1.53214 46.0052 2.18111C46.3112 2.29563 46.4642 2.67738 46.3494 2.98278C46.2347 3.25 46.0052 3.4027 45.7757 3.4027Z" fill="white"/>
<path d="M44.5515 5.57839C44.475 5.57839 44.3985 5.57839 44.322 5.54021C43.3275 5.15847 42.333 4.92942 41.262 4.89124C40.9177 4.89124 40.65 4.58585 40.6882 4.24227C40.6882 3.8987 40.9942 3.63148 41.3385 3.66965C42.5243 3.70783 43.6718 3.97505 44.781 4.39497C45.0871 4.5095 45.2401 4.89124 45.1253 5.19664C45.0488 5.42569 44.8193 5.57839 44.5515 5.57839Z" fill="white"/>
<path d="M34.109 4.39468C33.9177 4.39468 33.6882 4.28016 33.5735 4.12746C33.3822 3.82206 33.497 3.44032 33.7647 3.24944C35.18 2.33325 36.7483 1.72245 38.4313 1.41706C38.7756 1.34071 39.0816 1.56975 39.1581 1.91333C39.2346 2.2569 39.0051 2.5623 38.6608 2.63865C37.1691 2.94404 35.7155 3.47849 34.4533 4.31833C34.3385 4.35651 34.2238 4.39468 34.109 4.39468Z" fill="white"/>
<path d="M35.6774 6.34128C35.4861 6.34128 35.2566 6.22676 35.1418 6.03588C34.9506 5.73049 35.0653 5.34874 35.3331 5.19604C36.3659 4.58524 37.4369 4.12715 38.6227 3.8981C38.9669 3.82175 39.2729 4.0508 39.3494 4.3562C39.4259 4.69977 39.1964 5.00517 38.8904 5.08152C37.8577 5.31056 36.9014 5.69231 35.9834 6.22676C35.8686 6.30311 35.7539 6.34128 35.6774 6.34128Z" fill="white"/>
<path d="M4.12227 24.0169C4.04577 23.9787 3.93102 23.9405 3.81627 23.9405C3.70151 23.9405 3.54851 23.9787 3.43376 24.055C3.43376 24.2077 3.39551 24.3986 3.39551 24.5513C3.39551 24.704 3.35726 24.8949 3.35726 25.0476C3.35726 25.2003 3.319 25.3912 3.28075 25.5439C3.2425 25.7347 3.2425 25.8874 3.20425 26.0783C3.166 25.9638 3.166 25.8493 3.12775 25.7729C3.0895 25.6584 3.0895 25.582 3.05125 25.4675C3.013 25.353 3.013 25.2766 2.97475 25.1621C2.9365 25.0476 2.89825 24.9331 2.86 24.8185C2.86 24.7422 2.78349 24.704 2.70699 24.6658C2.63049 24.6277 2.51574 24.5895 2.36273 24.5895C2.28623 24.5895 2.20973 24.5895 2.13323 24.6277C2.05673 24.6658 2.01848 24.6658 1.98023 24.6658C1.94198 24.8185 1.90373 24.9712 1.90373 25.0858C1.86547 25.2003 1.82722 25.3148 1.82722 25.4293C1.78897 25.5439 1.78897 25.6584 1.75072 25.7347C1.71247 25.8493 1.71247 25.9638 1.67422 26.0783H1.63597C1.63597 26.0401 1.63597 25.9638 1.59772 25.8874C1.59772 25.8111 1.55947 25.6966 1.55947 25.582C1.52122 25.4293 1.52122 25.2766 1.48297 25.0476C1.44472 24.8185 1.40647 24.5895 1.36821 24.2459C1.36821 24.1314 1.29171 24.055 1.21521 23.9787C1.13871 23.9405 1.02396 23.9023 0.909205 23.9023C0.832703 23.9023 0.717951 23.9023 0.641449 23.9405C0.564948 23.9787 0.488446 24.0169 0.450195 24.055C0.450195 24.1696 0.488446 24.3223 0.488446 24.475C0.526697 24.6277 0.526697 24.7804 0.564948 24.9712C0.603198 25.1239 0.641449 25.3148 0.6797 25.4675C0.717951 25.6202 0.756202 25.7729 0.794452 25.9256C0.832703 26.0783 0.870954 26.1928 0.909205 26.3074C0.947456 26.4219 0.985706 26.4982 0.985706 26.5746C1.02396 26.6509 1.10046 26.6891 1.21521 26.7273C1.32996 26.7654 1.44472 26.8036 1.59772 26.8036C1.71247 26.8036 1.82722 26.8036 1.90373 26.7654C1.98023 26.7273 2.05673 26.6891 2.13323 26.6509C2.17148 26.4982 2.20973 26.3455 2.24798 26.1547C2.28623 25.9638 2.32448 25.7729 2.40099 25.5439C2.43924 25.7347 2.51574 25.9256 2.55399 26.1165C2.59224 26.2692 2.63049 26.4219 2.66874 26.5746C2.70699 26.6509 2.74524 26.6891 2.86 26.7273C2.97475 26.7654 3.0895 26.8036 3.2425 26.8036C3.35726 26.8036 3.47201 26.8036 3.58676 26.7654C3.70151 26.7273 3.77801 26.6891 3.81627 26.6509C3.85452 26.5746 3.89277 26.4982 3.93102 26.3455C3.96927 26.231 4.00752 26.0783 4.04577 25.9256C4.08402 25.7729 4.12227 25.6202 4.16052 25.4293C4.19877 25.2766 4.23702 25.0858 4.23702 24.9331C4.27527 24.7804 4.27527 24.6277 4.27527 24.5131C4.27527 24.3986 4.31353 24.2841 4.31353 24.2077C4.27527 24.1314 4.23702 24.055 4.12227 24.0169Z" fill="white"/>
<path d="M6.95112 26.1547H5.76535V25.6584H6.64511C6.72162 25.6584 6.79812 25.6202 6.83637 25.582C6.87462 25.5439 6.91287 25.4293 6.91287 25.3148C6.91287 25.2385 6.91287 25.2003 6.87462 25.1239C6.87462 25.0858 6.83637 25.0094 6.79812 25.0094H5.72709V24.5895H6.72162C6.79812 24.5895 6.87462 24.5513 6.91287 24.5131C6.95112 24.475 6.98937 24.3604 6.98937 24.2459C6.98937 24.1696 6.98937 24.1314 6.95112 24.055C6.95112 24.0169 6.91287 23.9405 6.87462 23.9023H5.34459C5.19158 23.9023 5.11508 23.9405 5.03858 24.0169C4.96208 24.0932 4.92383 24.2077 4.92383 24.3223V26.3074C4.92383 26.4601 4.96208 26.5364 5.03858 26.6127C5.11508 26.6891 5.22983 26.7273 5.34459 26.7273H6.72162C6.79812 26.7273 6.87462 26.6891 6.91287 26.6509C6.95112 26.6128 6.98937 26.4982 6.98937 26.3837C6.98937 26.3074 6.98937 26.2692 6.95112 26.1928C6.98937 26.231 6.98937 26.1928 6.95112 26.1547Z" fill="white"/>
<path d="M9.63096 25.2766C9.78396 25.2385 9.86047 25.1621 9.97522 25.0476C10.0517 24.9331 10.09 24.8185 10.09 24.704C10.09 24.4368 9.97522 24.2077 9.78396 24.0932C9.55446 23.9405 9.24845 23.9023 8.86594 23.9023C8.71294 23.9023 8.52169 23.9023 8.36868 23.9405C8.21568 23.9405 8.06268 23.9787 7.98618 24.0169C7.90967 24.055 7.87142 24.055 7.83317 24.0932C7.79492 24.1314 7.79492 24.1696 7.79492 24.2459V26.4219C7.79492 26.5746 7.87142 26.6891 8.06268 26.7654C8.13918 26.8036 8.17743 26.8036 8.25393 26.8418C8.33043 26.8418 8.40693 26.88 8.48344 26.88C8.55994 26.88 8.63644 26.88 8.71294 26.88C8.78944 26.88 8.86594 26.88 8.90419 26.88C9.32495 26.88 9.66921 26.8036 9.89872 26.6509C10.1282 26.4982 10.243 26.2692 10.243 25.9638C10.243 25.7729 10.2047 25.6584 10.09 25.5439C9.93697 25.3912 9.78396 25.3148 9.63096 25.2766ZM8.55994 24.5131C8.59819 24.5131 8.63644 24.5131 8.71294 24.5131C8.78944 24.5131 8.82769 24.5131 8.86594 24.5131C9.01895 24.5131 9.09545 24.5513 9.17195 24.5895C9.24845 24.6277 9.2867 24.704 9.2867 24.7804C9.2867 24.8949 9.24845 24.9331 9.2102 25.0094C9.1337 25.0476 9.0572 25.0858 8.90419 25.0858H8.55994V24.5131ZM9.24845 26.1547C9.17195 26.1928 9.0572 26.231 8.94245 26.231C8.86594 26.231 8.82769 26.231 8.75119 26.231C8.67469 26.231 8.63644 26.231 8.59819 26.1928V25.6202H8.9807C9.1337 25.6202 9.2102 25.6584 9.2867 25.6966C9.3632 25.7347 9.40146 25.8111 9.40146 25.9256C9.3632 26.0401 9.32495 26.1165 9.24845 26.1547Z" fill="white"/>
<path d="M14.2594 24.2459C14.1064 24.1314 13.9534 24.0169 13.7621 23.9787C13.5709 23.9023 13.3414 23.9023 13.1119 23.9023C12.9971 23.9023 12.8441 23.9023 12.6911 23.9405C12.5381 23.9405 12.3851 23.9787 12.2704 24.0169C12.1939 24.055 12.1556 24.055 12.1174 24.0932C12.0791 24.1314 12.0791 24.1696 12.0791 24.2459V26.4219C12.0791 26.5746 12.1556 26.6891 12.3469 26.7654C12.4234 26.8036 12.4616 26.8036 12.5381 26.8418C12.6146 26.8418 12.6911 26.88 12.7676 26.88C12.8441 26.88 12.9206 26.88 12.9971 26.88C13.0736 26.88 13.1119 26.88 13.1884 26.88C13.4179 26.88 13.6474 26.8418 13.8386 26.8036C14.0299 26.7273 14.1829 26.6509 14.3359 26.5364C14.4889 26.4219 14.5654 26.2692 14.6419 26.0783C14.7184 25.8874 14.7567 25.6584 14.7567 25.4293C14.7567 25.1621 14.7184 24.9331 14.6419 24.7804C14.5272 24.5131 14.4124 24.3604 14.2594 24.2459ZM13.8004 25.7729C13.7621 25.8874 13.7239 25.9638 13.6474 26.0401C13.5709 26.1165 13.4944 26.1547 13.4179 26.1928C13.3414 26.231 13.2266 26.231 13.1119 26.231C13.0736 26.231 13.0354 26.231 12.9589 26.231C12.9206 26.231 12.8824 26.231 12.8441 26.231V24.5895C12.8824 24.5895 12.9206 24.5895 12.9971 24.5895C13.0354 24.5895 13.0736 24.5895 13.1119 24.5895C13.3414 24.5895 13.4944 24.6658 13.6474 24.8185C13.7621 24.9712 13.8386 25.1621 13.8386 25.4675C13.8769 25.5439 13.8386 25.6584 13.8004 25.7729Z" fill="white"/>
<path d="M17.4335 26.1547H16.2478V25.6584H17.1275C17.204 25.6584 17.2805 25.6202 17.3188 25.582C17.357 25.5439 17.3953 25.4293 17.3953 25.3148C17.3953 25.2385 17.3953 25.2003 17.357 25.1239C17.357 25.0858 17.3188 25.0094 17.2805 25.0094H16.2095V24.5895H17.204C17.2805 24.5895 17.357 24.5513 17.3953 24.5131C17.4335 24.475 17.4718 24.3604 17.4718 24.2459C17.4718 24.1696 17.4718 24.1314 17.4335 24.055C17.4335 24.0169 17.3953 23.9405 17.357 23.9023H15.827C15.674 23.9023 15.5975 23.9405 15.521 24.0169C15.4445 24.0932 15.4062 24.2077 15.4062 24.3223V26.3074C15.4062 26.4601 15.4445 26.5364 15.521 26.6127C15.5975 26.6891 15.7123 26.7273 15.827 26.7273H17.204C17.2805 26.7273 17.357 26.6891 17.3953 26.6509C17.4335 26.6128 17.4718 26.4982 17.4718 26.3837C17.4718 26.3074 17.4718 26.2692 17.4335 26.1928C17.4718 26.231 17.4335 26.1928 17.4335 26.1547Z" fill="white"/>
<path d="M20.1494 25.3912C19.9964 25.2385 19.7669 25.124 19.4608 25.0477L19.2313 24.9713C19.1548 24.9332 19.0783 24.9331 19.0401 24.895C19.0018 24.8568 18.9636 24.8186 18.9636 24.7805C18.9636 24.7041 19.0018 24.6659 19.0783 24.6278C19.1548 24.5896 19.2313 24.5514 19.3843 24.5514C19.5373 24.5514 19.6521 24.5514 19.7669 24.5896C19.8816 24.6278 19.9581 24.6659 20.0346 24.7041C20.0729 24.6659 20.1494 24.6278 20.1876 24.5514C20.2259 24.5132 20.2259 24.4369 20.2259 24.3605C20.2259 24.2842 20.1876 24.2078 20.1494 24.1315C20.1111 24.0551 20.0346 24.017 19.9581 23.9788C19.8816 23.9406 19.7669 23.9024 19.6521 23.9024C19.5373 23.9024 19.4226 23.8643 19.2696 23.8643C18.8871 23.8643 18.6193 23.9406 18.4281 24.0933C18.2368 24.246 18.1221 24.4751 18.1221 24.7423C18.1221 24.895 18.1603 25.0095 18.1986 25.0858C18.2368 25.1622 18.3133 25.2767 18.3898 25.3149C18.4663 25.3912 18.5811 25.4294 18.6958 25.5058C18.8106 25.5439 18.9253 25.6203 19.0783 25.6585L19.2696 25.7348C19.3461 25.773 19.4226 25.8112 19.4991 25.8493C19.5373 25.8875 19.5756 25.9257 19.5756 26.002C19.5756 26.0784 19.5373 26.1166 19.4991 26.1547C19.4226 26.1929 19.3461 26.2311 19.1931 26.2311C19.0401 26.2311 18.8871 26.1929 18.7723 26.1547C18.6576 26.1166 18.5428 26.0402 18.4663 25.9639C18.3898 26.002 18.3516 26.0402 18.2751 26.1166C18.2368 26.1929 18.1986 26.2693 18.1986 26.3456C18.1986 26.422 18.2368 26.4983 18.2751 26.5747C18.3133 26.651 18.3898 26.6892 18.5046 26.7274C18.5811 26.7655 18.6958 26.8037 18.8106 26.8419C18.9253 26.8801 19.0783 26.8801 19.1931 26.8801C19.6139 26.8801 19.9199 26.8037 20.1111 26.651C20.3024 26.4983 20.4171 26.2693 20.4171 26.002C20.3789 25.7348 20.3024 25.5439 20.1494 25.3912Z" fill="white"/>
<path d="M21.7561 23.9787C21.7178 23.9405 21.6796 23.9405 21.6031 23.9023C21.5648 23.9023 21.4883 23.9023 21.4118 23.9023C21.3353 23.9023 21.2588 23.9023 21.1823 23.9023C21.1058 23.9023 21.0675 23.9405 21.0293 23.9405V26.4219C21.0293 26.4982 21.0293 26.5746 21.0675 26.6127C21.0675 26.6509 21.1058 26.6891 21.1441 26.7273C21.1823 26.7654 21.2206 26.7654 21.2971 26.8036C21.3353 26.8036 21.4118 26.8036 21.4883 26.8036C21.5648 26.8036 21.6413 26.8036 21.7178 26.8036C21.7943 26.8036 21.8326 26.8036 21.8708 26.7654V24.2841C21.8708 24.2077 21.8708 24.1314 21.8326 24.0932C21.8326 24.055 21.7943 24.0169 21.7561 23.9787Z" fill="white"/>
<path d="M25.0066 25.0858H24.2034C24.1269 25.0858 24.0504 25.124 24.0121 25.1622C23.9739 25.2004 23.9356 25.2767 23.9356 25.3912C23.9356 25.4676 23.9356 25.5058 23.9739 25.5821C23.9739 25.6203 24.0121 25.6966 24.0121 25.7348H24.5094V26.1929C24.4711 26.1929 24.4329 26.2311 24.3946 26.2311C24.3564 26.2311 24.2799 26.2311 24.2034 26.2311C24.0886 26.2311 24.0121 26.2311 23.8974 26.1929C23.8209 26.1547 23.7061 26.1166 23.6679 26.0402C23.5914 25.9639 23.5531 25.8875 23.5149 25.773C23.4766 25.6585 23.4384 25.5439 23.4384 25.3912C23.4384 25.124 23.5149 24.9332 23.6679 24.7805C23.8209 24.6278 24.0121 24.5514 24.2799 24.5514C24.4329 24.5514 24.5476 24.5896 24.6624 24.6278C24.7771 24.6659 24.8919 24.7041 24.9684 24.7805C25.0066 24.7423 25.0831 24.7041 25.1214 24.6278C25.1596 24.5514 25.1979 24.5132 25.1979 24.3987C25.1979 24.246 25.1214 24.1315 24.9301 24.017C24.7389 23.9406 24.5094 23.8643 24.2416 23.8643C24.0504 23.8643 23.8209 23.9024 23.6296 23.9406C23.4384 24.017 23.2471 24.0933 23.0941 24.2078C22.9411 24.3224 22.8263 24.4751 22.7116 24.6659C22.6351 24.8568 22.5586 25.0858 22.5586 25.3531C22.5586 25.5821 22.5968 25.8112 22.6733 26.002C22.7498 26.1929 22.8646 26.3456 23.0176 26.4601C23.1706 26.5747 23.3236 26.6892 23.5149 26.7274C23.7061 26.8037 23.9356 26.8037 24.1651 26.8037C24.2416 26.8037 24.3181 26.8037 24.4329 26.8037C24.5094 26.8037 24.5859 26.7655 24.6624 26.7655C24.7389 26.7655 24.8154 26.7274 24.8919 26.6892C24.9684 26.651 25.0066 26.651 25.0449 26.6128C25.1214 26.5747 25.1596 26.5365 25.1979 26.4601C25.2362 26.422 25.2361 26.3456 25.2361 26.2311V25.2767C25.2361 25.2004 25.1979 25.124 25.1596 25.0477C25.1596 25.0858 25.0831 25.0858 25.0066 25.0858Z" fill="white"/>
<path d="M28.5262 23.9787C28.4497 23.9405 28.3349 23.9023 28.2202 23.9023C28.1437 23.9023 28.0672 23.9023 28.0289 23.9023C27.9524 23.9023 27.9142 23.9023 27.8759 23.9405V24.704C27.8759 24.8567 27.8759 25.0476 27.8759 25.2003C27.8759 25.353 27.8759 25.5439 27.9142 25.6966H27.8759C27.8377 25.582 27.7994 25.4675 27.7612 25.3912C27.7229 25.3148 27.6847 25.2003 27.6464 25.1239L27.1874 24.1696C27.1109 24.055 27.0344 23.9787 26.9196 23.9405C26.8049 23.9023 26.6901 23.9023 26.5754 23.9023C26.4606 23.9023 26.3841 23.9023 26.2694 23.9405C26.1929 23.9787 26.1164 24.0169 26.0781 24.0932V26.4219C26.0781 26.4982 26.0781 26.5746 26.1164 26.6127C26.1164 26.6509 26.1546 26.6891 26.1929 26.7273C26.2311 26.7654 26.2694 26.7654 26.3076 26.7654C26.3459 26.7654 26.4224 26.7654 26.4989 26.7654C26.5754 26.7654 26.6519 26.7654 26.6901 26.7654C26.7666 26.7654 26.8049 26.7654 26.8431 26.7273V26.002C26.8431 25.8493 26.8431 25.6584 26.8431 25.5057C26.8431 25.3148 26.8431 25.1621 26.8049 25.0094H26.8431C26.8814 25.1239 26.9196 25.2385 26.9579 25.3148C26.9961 25.3912 27.0344 25.5057 27.0726 25.582L27.5317 26.5364C27.6082 26.6509 27.6847 26.7654 27.7994 26.7654C27.9142 26.8036 28.0289 26.8036 28.1437 26.8036C28.2584 26.8036 28.3732 26.8036 28.4497 26.7654C28.5262 26.7273 28.6027 26.7273 28.6409 26.6509V24.2459C28.6409 24.1314 28.6027 24.0169 28.5262 23.9787Z" fill="white"/>
<path d="M33.2308 25.3912C33.2308 25.3149 33.2308 25.2767 33.2308 25.2004C33.2308 25.1622 33.1925 25.0858 33.1925 25.0477C33.1543 25.0095 33.116 24.9713 33.0778 24.9713C33.0395 24.9332 32.963 24.9332 32.8865 24.9332C32.8483 24.9332 32.7718 24.9332 32.7335 24.9332C32.6953 24.9332 32.6188 24.9713 32.5805 24.9713C32.5805 25.0858 32.5805 25.2004 32.5805 25.2767C32.5805 25.3531 32.5423 25.4676 32.5423 25.5058L31.9303 24.9332C31.8538 24.8568 31.8155 24.8186 31.7773 24.7805C31.7008 24.7805 31.7008 24.7423 31.7008 24.7041C31.7008 24.6278 31.739 24.5896 31.7773 24.5514C31.8155 24.5132 31.892 24.5132 31.9685 24.5132C32.0068 24.5132 32.0833 24.5132 32.1215 24.5132C32.1598 24.5132 32.198 24.5514 32.2363 24.5514C32.2745 24.5132 32.3128 24.4751 32.3128 24.3987C32.351 24.3605 32.351 24.2842 32.351 24.246C32.351 24.1315 32.3128 24.0551 32.2363 23.9788C32.1598 23.9024 32.0068 23.8643 31.8155 23.8643C31.6625 23.8643 31.5478 23.8643 31.433 23.9024C31.3182 23.9406 31.2417 23.9788 31.1652 24.0551C31.0887 24.1315 31.0505 24.2078 30.974 24.2842C30.9357 24.3605 30.8975 24.4751 30.8975 24.5514C30.8975 24.6278 30.8975 24.7041 30.9357 24.7805C30.974 24.8568 31.0122 24.9332 31.0505 25.0095C30.974 25.0477 30.8975 25.0859 30.821 25.124C30.7445 25.1622 30.7062 25.2385 30.6297 25.3149C30.5915 25.3912 30.515 25.4676 30.4767 25.5439C30.4385 25.6203 30.4385 25.7348 30.4385 25.8493C30.4385 26.002 30.4767 26.1166 30.515 26.2311C30.5532 26.3456 30.6297 26.4601 30.7445 26.5365C30.8592 26.6128 30.974 26.6892 31.0887 26.7274C31.2417 26.7655 31.3947 26.8037 31.586 26.8037C31.7773 26.8037 31.9303 26.7655 32.0833 26.7274C32.2363 26.6892 32.351 26.6128 32.4658 26.5365L32.5423 26.6128C32.657 26.7274 32.7718 26.8037 32.9248 26.8037C33.0395 26.8037 33.116 26.7655 33.1925 26.6892C33.269 26.6128 33.3073 26.5365 33.3073 26.3838L32.963 26.0402C33.1543 25.8875 33.2308 25.6203 33.2308 25.3912ZM31.892 26.2311C31.8155 26.2311 31.739 26.2693 31.7008 26.2693C31.5478 26.2693 31.433 26.2311 31.3565 26.1547C31.28 26.0784 31.2417 26.002 31.2417 25.8875C31.2417 25.8112 31.28 25.773 31.3182 25.6966C31.3565 25.6203 31.433 25.5821 31.4712 25.5439L32.0833 26.1547C32.045 26.1929 31.9685 26.1929 31.892 26.2311Z" fill="white"/>
<path d="M38.3955 25.9632C38.3955 25.8105 38.3573 25.6196 38.3573 25.4288C38.3573 25.2379 38.319 25.0852 38.319 24.9325C38.319 24.7798 38.2808 24.6271 38.2808 24.5126C38.2808 24.398 38.2425 24.2835 38.2425 24.2072C38.2425 24.1308 38.166 24.0545 38.0895 24.0163C37.9748 23.9781 37.86 23.9399 37.707 23.9399C37.6305 23.9399 37.5158 23.9399 37.4775 23.9781C37.401 23.9781 37.3627 24.0163 37.2862 24.0545C37.2097 24.2072 37.1715 24.4362 37.095 24.6653C37.0185 24.8943 36.942 25.1615 36.8655 25.4288H36.8272C36.789 25.3524 36.789 25.2379 36.7507 25.1615C36.7125 25.047 36.6742 24.9707 36.636 24.8561C36.5977 24.7416 36.5595 24.6653 36.5212 24.5507C36.483 24.4362 36.4447 24.3599 36.4447 24.2835C36.4065 24.169 36.33 24.0926 36.2535 24.0163C36.177 23.9781 36.024 23.9399 35.871 23.9399C35.718 23.9399 35.6032 23.9781 35.5267 24.0163C35.4502 24.0545 35.3737 24.0926 35.3737 24.1308L35.2207 26.4976C35.2207 26.6122 35.259 26.6885 35.3355 26.7267C35.412 26.7649 35.5267 26.803 35.6415 26.803C35.718 26.803 35.7562 26.803 35.8327 26.803C35.9092 26.803 35.9475 26.7649 35.9857 26.7649C35.9857 26.574 35.9857 26.4213 36.024 26.2686C36.024 26.1159 36.024 25.9632 36.024 25.8487C36.024 25.696 36.024 25.5433 36.024 25.3906C36.024 25.2379 36.024 25.0852 36.0622 24.8943H36.1005C36.1387 25.0088 36.177 25.1615 36.2152 25.3524C36.2535 25.5051 36.33 25.7342 36.4447 26.0014C36.483 26.0777 36.5212 26.1159 36.5977 26.1541C36.6742 26.1922 36.7507 26.1922 36.8655 26.1922C36.942 26.1922 37.0185 26.1922 37.095 26.1541C37.1715 26.1159 37.2097 26.1159 37.248 26.0777C37.3245 25.7723 37.401 25.5433 37.4775 25.3524C37.554 25.1615 37.5923 25.0088 37.6305 24.8943H37.6688C37.6688 25.0852 37.6688 25.3142 37.707 25.5815C37.707 25.8487 37.707 26.1541 37.7453 26.4976C37.7453 26.6122 37.7835 26.6885 37.86 26.7267C37.9365 26.7649 38.0513 26.803 38.166 26.803C38.2425 26.803 38.319 26.803 38.3955 26.7649C38.472 26.7649 38.5103 26.7267 38.5485 26.6885C38.5485 26.6122 38.5485 26.4976 38.5485 26.3831C38.3955 26.2686 38.3955 26.1159 38.3955 25.9632Z" fill="white"/>
<path d="M41.5693 24.2456C41.4163 24.1311 41.2633 24.0166 41.1103 23.9402C40.919 23.8639 40.7278 23.8257 40.5365 23.8257C40.3453 23.8257 40.1158 23.8639 39.9628 23.9402C39.7715 24.0166 39.6185 24.0929 39.5038 24.2456C39.389 24.3601 39.2743 24.5128 39.1978 24.7037C39.1213 24.8946 39.083 25.1236 39.083 25.3527C39.083 25.5817 39.1213 25.8108 39.1978 26.0016C39.2743 26.1925 39.389 26.3452 39.5038 26.4597C39.6185 26.5743 39.8098 26.6888 39.9628 26.7651C40.154 26.8415 40.3453 26.8797 40.5365 26.8797C40.766 26.8797 40.9573 26.8415 41.1103 26.7651C41.3016 26.6888 41.4546 26.6124 41.5693 26.4597C41.6841 26.3452 41.7988 26.1925 41.8753 26.0016C41.9518 25.8108 41.9901 25.5817 41.9901 25.3527C41.9901 25.1236 41.9518 24.8946 41.8753 24.7037C41.7988 24.5128 41.6841 24.3601 41.5693 24.2456ZM40.9955 26.0016C40.8808 26.1543 40.7278 26.2307 40.5365 26.2307C40.3453 26.2307 40.1923 26.1543 40.0775 26.0016C39.9628 25.8489 39.8863 25.6581 39.8863 25.3527C39.8863 25.0854 39.9628 24.8564 40.0775 24.7037C40.1923 24.551 40.3453 24.5128 40.5365 24.5128C40.7278 24.5128 40.8808 24.5892 40.9955 24.7419C41.1103 24.8946 41.1485 25.0854 41.1485 25.3908C41.1485 25.6581 41.1103 25.8489 40.9955 26.0016Z" fill="white"/>
<path d="M44.5138 25.6966C44.6668 25.6202 44.7815 25.5057 44.858 25.3912C44.9728 25.2385 45.011 25.0858 45.011 24.8949C45.011 24.5895 44.8963 24.3223 44.6668 24.1696C44.4373 23.9787 44.1313 23.9023 43.7105 23.9023C43.5575 23.9023 43.4045 23.9023 43.2515 23.9405C43.0985 23.9405 42.9837 23.9787 42.869 24.0169C42.7925 24.055 42.7542 24.055 42.716 24.0932C42.6777 24.1314 42.6777 24.1696 42.6777 24.2459V26.4601C42.6777 26.5364 42.6777 26.6128 42.716 26.6509C42.716 26.6891 42.7542 26.7273 42.7925 26.7654C42.8307 26.8036 42.869 26.8036 42.9455 26.8418C42.9837 26.8418 43.0602 26.8418 43.1367 26.8418C43.2132 26.8418 43.2897 26.8418 43.3662 26.8418C43.4428 26.8418 43.481 26.8418 43.5193 26.8036V25.8874H43.7488L44.1313 26.5364C44.1695 26.5746 44.2078 26.6128 44.2078 26.6509C44.246 26.6891 44.2843 26.7273 44.3225 26.7654C44.3608 26.8036 44.399 26.8036 44.4373 26.8418C44.4755 26.8418 44.552 26.88 44.6285 26.88C44.7433 26.88 44.8198 26.8418 44.8963 26.8036C44.9728 26.7273 45.0493 26.6509 45.0493 26.5364C44.9728 26.4219 44.8963 26.3074 44.7815 26.1547C44.7433 26.002 44.6285 25.8493 44.5138 25.6966ZM44.093 25.1621C44.0165 25.2385 43.94 25.2385 43.8253 25.2385H43.5193V24.5513C43.5575 24.5513 43.5958 24.5513 43.5958 24.5513C43.634 24.5513 43.6723 24.5513 43.7105 24.5513C43.8635 24.5513 43.9783 24.5895 44.0548 24.6277C44.1313 24.704 44.1695 24.7804 44.1695 24.8949C44.2078 25.0094 44.1695 25.0858 44.093 25.1621Z" fill="white"/>
<path d="M47.8037 26.1547H46.6179V25.6584H47.4977C47.5742 25.6584 47.6507 25.6202 47.6889 25.582C47.7272 25.5439 47.7654 25.4293 47.7654 25.3148C47.7654 25.2385 47.7654 25.2003 47.7272 25.1239C47.7272 25.0858 47.6889 25.0094 47.6507 25.0094H46.5796V24.5895H47.5742C47.6507 24.5895 47.7272 24.5513 47.7654 24.5131C47.8037 24.475 47.8419 24.3604 47.8419 24.2459C47.8419 24.1696 47.8419 24.1314 47.8037 24.055C47.8037 24.0169 47.7654 23.9405 47.7272 23.9023H46.1971C46.0441 23.9023 45.9676 23.9405 45.8911 24.0169C45.8146 24.0932 45.7764 24.2077 45.7764 24.3223V26.3074C45.7764 26.4601 45.8146 26.5364 45.8911 26.6127C45.9676 26.6891 46.0824 26.7273 46.1971 26.7273H47.5742C47.6507 26.7273 47.7272 26.6891 47.7654 26.6509C47.8037 26.6128 47.8419 26.4982 47.8419 26.3837C47.8419 26.3074 47.8419 26.2692 47.8037 26.1928C47.8419 26.231 47.8037 26.1928 47.8037 26.1547Z" fill="white"/>
<path d="M50.0235 25.9634C49.8705 25.9634 49.7557 26.0016 49.6792 26.0779C49.6027 26.1543 49.5645 26.2688 49.5645 26.4215C49.5645 26.536 49.6027 26.6505 49.6792 26.765C49.7557 26.8414 49.8705 26.8796 50.0235 26.8796C50.1765 26.8796 50.2912 26.8414 50.3677 26.765C50.4442 26.6887 50.4825 26.5742 50.4825 26.4215C50.4825 26.307 50.4442 26.1924 50.3677 26.0779C50.253 26.0016 50.1765 25.9634 50.0235 25.9634Z" fill="white"/>
<path d="M51.7066 26.0779C51.6301 26.0016 51.5153 25.9634 51.3623 25.9634C51.2093 25.9634 51.0946 26.0016 51.0181 26.0779C50.9416 26.1543 50.9033 26.2688 50.9033 26.4215C50.9033 26.536 50.9416 26.6505 51.0181 26.765C51.0946 26.8414 51.2093 26.8796 51.3623 26.8796C51.5153 26.8796 51.6301 26.8414 51.7066 26.765C51.7831 26.6887 51.8213 26.5742 51.8213 26.4215C51.8213 26.2688 51.7831 26.1543 51.7066 26.0779Z" fill="white"/>
</svg>
