<svg width="36" height="40" viewBox="0 0 36 40" fill="none" xmlns="http://www.w3.org/2000/svg">
<path d="M25.8434 25.8528C30.0267 23.3765 33.1983 21.4895 33.4716 21.343C34.3461 20.8416 35.2491 19.5148 33.4716 18.484C32.8976 18.16 29.8078 16.3318 25.8434 13.9741L20.3477 19.9575L25.8434 25.8528Z" fill="white" stroke="#081C27" stroke-width="1.8"/>
<path d="M20.3438 19.9575L2.84473 38.9704C3.25545 39.0291 3.71921 38.9118 4.26592 38.5877C5.41377 37.9105 17.5817 30.7468 25.8396 25.8544L20.3438 19.9575Z" fill="white" stroke="#081C27" stroke-width="1.8"/>
<path d="M20.3446 19.9575L25.8404 14.0034C25.8404 14.0034 5.49756 2.03534 4.26676 1.32866C3.803 1.0325 3.28348 0.944532 2.81836 1.0325L20.3446 19.9575Z" fill="white" stroke="#081C27" stroke-width="1.8"/>
<path d="M20.3445 19.9576L2.81825 1.03271C2.10698 1.21012 1.50586 1.88748 1.50586 3.27298C1.50586 5.48392 1.50586 34.9021 1.50586 36.7303C1.50586 37.9985 1.97098 38.9119 2.84546 38.9999L20.3445 19.9576Z" fill="white" stroke="#081C27" stroke-width="1.8"/>
</svg>
