<svg width="1920" height="150" viewBox="0 0 1920 150" fill="none" xmlns="http://www.w3.org/2000/svg">
<g clip-path="url(#clip0_409_1006)">
<rect width="1920" height="150" fill="white"/>
<path d="M1920 149.5V83.7718C1918.21 79.9711 1912.69 80.3273 1911.41 84.3264L1908.16 94.4309C1905.4 103.034 1895.79 107.346 1887.52 103.694L1839.95 82.6658C1824.53 75.8533 1806.57 78.5804 1793.87 89.6605L1788.68 94.1897C1780.87 101 1770.38 103.853 1760.2 101.93C1748.67 99.7532 1736.79 103.01 1727.98 110.758L1722.85 115.269C1714.03 123.034 1702.34 126.724 1690.66 125.434L1667.89 122.919C1647.45 120.662 1626.79 124.18 1608.24 133.075L1574 149.5H1920Z" fill="#888888" fill-opacity="0.48"/>
<path d="M1920 149V66C1916.23 66.9372 1913.13 69.6162 1911.66 73.2125L1909.71 77.9601C1902.21 96.2811 1882.05 105.937 1863.07 100.295L1809.23 84.2856C1793.51 79.6127 1776.54 81.9344 1762.66 90.6575L1750.52 98.2806C1738.23 106.003 1723.62 109.162 1709.24 107.205C1692.94 104.988 1676.38 108.6 1662.48 117.403L1649.79 125.449C1642.36 130.152 1633.95 133.075 1625.21 133.989L1587.75 137.909C1577.43 138.989 1567.01 137.337 1557.54 133.12C1545.2 127.631 1531.39 126.442 1518.3 129.745L1442 149H1920Z" fill="#017B32"/>
<path d="M2225 88V-39C2216.42 -36.8659 2209.36 -30.7672 2206.01 -22.5807L2191.05 13.9685C2179.96 41.0768 2150.13 55.364 2122.05 47.0134L1941.32 -6.74454C1925.59 -11.4209 1908.62 -9.09765 1894.73 -0.368755L1815.31 49.5549C1802.8 57.417 1787.93 60.6331 1773.29 58.641L1713.52 50.5074C1696.93 48.25 1680.07 51.9273 1665.93 60.8899L1595.55 105.498C1588.13 110.204 1579.71 113.129 1570.97 114.044L1461.66 125.487C1442.82 127.459 1423.79 124.441 1406.48 116.735L1391.42 110.026C1368.89 99.9971 1343.65 97.826 1319.75 103.862L1137 150H2163C2197.24 150 2225 122.242 2225 88Z" fill="#B1B1B1" fill-opacity="0.13"/>
<circle cx="1870.5" cy="78" r="5.5" fill="#A2A2A2"/>
<circle cx="1868.5" cy="78" r="7.5" fill="#A2A2A2" fill-opacity="0.47"/>
<circle cx="1744.43" cy="95.0003" r="2.56667" fill="#A2A2A2" fill-opacity="0.93"/>
<circle cx="1743.5" cy="95" r="3.5" fill="#A2A2A2" fill-opacity="0.49"/>
<path d="M0.000793457 -0.499794L0.000793457 92.2686C2.52475 97.6329 10.3146 97.1301 12.128 91.4858L16.7099 77.2243C20.6107 65.0826 34.1715 58.9959 45.8361 64.1512L115.464 94.9236C135.709 103.871 159.303 100.289 175.981 85.7367L185.346 77.5648C196.362 67.9527 211.179 63.9257 225.544 66.6396C241.811 69.7125 258.586 65.1161 271.014 54.1808L278.91 47.2332C290.946 36.643 306.885 31.611 322.82 33.3709L368.691 38.4369C389.133 40.6944 409.798 37.1763 428.34 28.2818L488.343 -0.499794L0.000793457 -0.499794Z" fill="#888888" fill-opacity="0.48"/>
<path d="M-0.000183105 0.0923233V81.8184C5.37463 80.8872 10.0673 77.6377 12.8297 72.934L15.2064 68.8872C25.9572 50.5814 47.1788 41.163 67.9662 45.4717L173.587 67.364C185.162 69.7632 197.197 68.5043 208.025 63.7615L251.275 44.8174C261.088 40.5194 271.834 38.7945 282.499 39.8058L314.884 42.8768C326.977 44.0235 339.161 42.0487 350.272 37.1411L388.558 20.2316C394.535 17.5914 400.923 15.9988 407.44 15.5233L471.153 10.8759C484.609 9.8943 498.13 11.4427 511.016 15.441L513.399 16.1805C530.112 21.3665 547.822 22.49 565.057 19.4577L675.128 0.0923233L-0.000183105 0.0923233Z" fill="#006838" fill-opacity="0.7"/>
<circle cx="69.8643" cy="100.415" r="7.76266" transform="rotate(180 69.8643 100.415)" fill="#A2A2A2"/>
<circle cx="72.687" cy="100.415" r="10.5854" transform="rotate(180 72.687 100.415)" fill="#A2A2A2" fill-opacity="0.47"/>
<circle cx="247.794" cy="76.4204" r="3.62258" transform="rotate(180 247.794 76.4204)" fill="#A2A2A2" fill-opacity="0.93"/>
<circle cx="249.111" cy="76.4205" r="4.93988" transform="rotate(180 249.111 76.4205)" fill="#A2A2A2" fill-opacity="0.49"/>
</g>
<defs>
<clipPath id="clip0_409_1006">
<rect width="1920" height="150" fill="white"/>
</clipPath>
</defs>
</svg>
