<svg width="91" height="92" viewBox="0 0 91 92" fill="none" xmlns="http://www.w3.org/2000/svg">
<g clip-path="url(#clip0_376_1087)">
<path d="M88.2505 23.6118C85.8617 14.8175 76.7173 5.67133 67.923 3.28436C62.5305 1.93891 55.3074 0.554355 45.5 0.53125C35.6962 0.556133 28.473 1.93891 23.0806 3.28436C14.2881 5.67311 5.14186 14.8175 2.75311 23.6118C1.40943 29.0025 0.0248828 36.2274 0 46.0312C0.0248828 55.8369 1.40943 63.0618 2.75311 68.4524C5.14186 77.2467 14.2881 86.3912 23.0806 88.7799C28.473 90.1254 35.6997 91.5081 45.5018 91.533C55.3056 91.5081 62.5305 90.1254 67.923 88.7799C76.7173 86.3912 85.8617 77.2467 88.2505 68.4524C89.5941 63.0618 90.9787 55.8333 91.0018 46.0312C90.9787 36.2274 89.5941 29.0025 88.2505 23.6118Z" fill="#0F7445" fill-opacity="0.12"/>
<path d="M79.0358 65.6212C77.1625 62.4948 69.9873 59.2458 63.0895 58.398C57.2478 57.7345 51.3729 57.4075 45.4938 57.4187C39.6146 57.4075 33.7397 57.7345 27.898 58.398C21.0002 59.2458 13.825 62.4948 11.9517 65.6212C10.9102 67.5372 9.82424 70.1036 9.80469 73.5801C9.82424 77.0637 10.9084 79.6231 11.9642 81.548C13.8375 84.6725 21.0126 87.9215 27.9105 88.7711C33.7522 89.433 39.6271 89.7593 45.5062 89.7486C51.3853 89.7593 57.2602 89.4329 63.1019 88.7711C69.9998 87.9215 77.1749 84.6725 79.0482 81.548C80.1022 79.632 81.181 77.0637 81.2077 73.5801C81.1757 70.1036 80.0898 67.5372 79.0358 65.6212Z" fill="url(#paint0_radial_376_1087)"/>
<path d="M55.2656 17.967C53.4731 16.6341 51.3148 15.8834 49.0822 15.8164C42.5784 15.6574 36.0712 15.9252 29.6025 16.618C25.2818 17.1192 21.1388 21.2622 20.6376 25.5829C19.5036 36.1847 19.5036 55.8706 20.6376 66.4707C21.1388 70.7914 25.2818 74.9362 29.6025 75.4374C40.1771 76.5702 50.8424 76.5702 61.4169 75.4374C65.7377 74.9362 69.8806 70.7932 70.3819 66.4707C71.155 59.2511 71.4003 47.8086 71.1195 37.9088V37.8679C71.1002 35.7323 70.4073 33.6573 69.1395 31.9387C65.2322 26.6201 60.5565 21.9115 55.2656 17.967Z" fill="url(#paint1_linear_376_1087)"/>
<path d="M71.1086 37.9106C70.2857 37.9301 69.461 37.9443 68.6434 37.9443C65.1631 37.9435 61.6852 37.7578 58.2246 37.388H58.1944C56.1327 37.1499 54.1065 36.1261 52.4874 34.507C50.8682 32.8878 49.8444 30.8581 49.6063 28.791C49.6054 28.781 49.6054 28.7709 49.6063 28.7608C49.1468 24.4622 48.9711 20.1381 49.0802 15.8164C51.3135 15.8831 53.4724 16.6338 55.2653 17.967C60.5665 21.9214 65.2496 26.6428 69.1606 31.976C70.4221 33.6842 71.1068 35.7498 71.1157 37.8732L71.1086 37.9106Z" fill="url(#paint2_linear_376_1087)"/>
<path d="M33.303 68.9804C32.1811 68.9776 31.1061 68.5302 30.3135 67.7362C29.855 67.2772 29.5084 66.7187 29.3006 66.1041C29.0928 65.4895 29.0294 64.8353 29.1153 64.1922C29.2013 63.5491 29.4343 62.9345 29.7962 62.396C30.1581 61.8575 30.6392 61.4096 31.2022 61.0872C34.0936 59.4344 37.1087 58.0083 40.2204 56.8216C40.4088 56.4661 40.5961 56.1011 40.7821 55.7267C41.9386 53.4173 42.9086 51.0192 43.6827 48.5551C42.1082 46.084 40.9331 43.38 40.2009 40.5429C39.9813 39.6628 40.0589 38.7349 40.4214 37.9035C40.7839 37.0721 41.4111 36.3838 42.2053 35.9459C42.9996 35.5079 43.9163 35.3447 44.8129 35.4818C45.7095 35.6189 46.5356 36.0485 47.1627 36.7038C47.5694 37.1292 47.8805 37.6366 48.0752 38.1921C48.2698 38.7475 48.3435 39.3381 48.2914 39.9243C48.0406 42.6902 47.5355 45.427 46.7824 48.1001C48.2182 50.1459 49.903 52.0051 51.7981 53.6348C53.8039 53.2872 55.8281 53.0551 57.8606 52.9398C58.4607 52.9085 59.0598 53.0174 59.6105 53.258C60.1611 53.4986 60.6482 53.8642 61.0329 54.3257C61.4177 54.7873 61.6896 55.3322 61.8271 55.9172C61.9646 56.5022 61.9639 57.1111 61.825 57.6958C61.6862 58.2804 61.413 58.8247 61.0271 59.2854C60.6413 59.746 60.1534 60.1105 59.6022 60.3498C59.051 60.589 58.4516 60.6966 57.8515 60.6638C57.2515 60.6311 56.6674 60.459 56.1454 60.1612C54.3432 59.1298 52.6235 57.9603 51.0018 56.6634C48.0173 57.2492 45.0825 58.0645 42.2235 59.1019C40.5918 62.0448 38.699 64.8352 36.568 67.4394C36.1942 67.8943 35.7295 68.266 35.2037 68.5308C34.6779 68.7955 34.1025 68.9474 33.5145 68.9768C33.4399 68.9804 33.3723 68.9804 33.303 68.9804ZM37.8317 60.8863C36.1272 61.6577 34.3801 62.5428 32.6045 63.5524C32.4203 63.6563 32.263 63.8019 32.1451 63.9775C32.0272 64.1531 31.952 64.3538 31.9256 64.5637C31.8862 64.8623 31.945 65.1656 32.0932 65.4279C32.2414 65.6902 32.4708 65.8971 32.7469 66.0175C33.0231 66.1379 33.3308 66.1652 33.6238 66.0953C33.9168 66.0254 34.1792 65.8621 34.3712 65.6301C35.6119 64.1143 36.7672 62.5306 37.8317 60.8863ZM54.9191 56.0449C55.7438 56.61 56.62 57.1646 57.5566 57.7031C57.6902 57.7808 57.8401 57.8264 57.9943 57.8363C58.1485 57.8461 58.3029 57.82 58.4453 57.76C58.5939 57.6994 58.7263 57.605 58.832 57.4843C58.9378 57.3636 59.0139 57.22 59.0545 57.0647C59.095 56.9095 59.0988 56.7469 59.0656 56.5899C59.0323 56.4329 58.963 56.2859 58.863 56.1604C58.7623 56.0329 58.6323 55.9316 58.4841 55.865C58.3359 55.7985 58.1738 55.7687 58.0116 55.7782C57.1301 55.8209 56.0939 55.9044 54.9191 56.0449ZM45.7195 51.4238C45.2059 52.8456 44.6407 54.216 44.0471 55.5116C45.5542 55.0442 46.9974 54.6585 48.3624 54.3422C47.4231 53.4202 46.54 52.4426 45.7178 51.4149L45.7195 51.4238ZM44.1324 38.2856C43.9421 38.2932 43.7559 38.3434 43.5876 38.4327C43.4193 38.5219 43.2732 38.6478 43.1602 38.8011C43.0465 38.9512 42.9684 39.1252 42.9318 39.3099C42.8951 39.4947 42.9009 39.6853 42.9487 39.8675C43.3693 41.5055 43.9609 43.0949 44.7136 44.6094C45.0613 42.9801 45.3106 41.3313 45.46 39.672C45.4775 39.4885 45.4547 39.3035 45.3933 39.1297C45.3319 38.956 45.2334 38.7977 45.1046 38.666C44.9801 38.5333 44.8281 38.4295 44.6592 38.362C44.4903 38.2944 44.3087 38.2647 44.127 38.275L44.1324 38.2856Z" fill="url(#paint3_linear_376_1087)"/>
</g>
<defs>
<radialGradient id="paint0_radial_376_1087" cx="0" cy="0" r="1" gradientUnits="userSpaceOnUse" gradientTransform="translate(45.4991 69.84) scale(35.6944 16.0625)">
<stop stop-color="#006838" stop-opacity="0.6"/>
<stop offset="1" stop-color="#006838" stop-opacity="0"/>
</radialGradient>
<linearGradient id="paint1_linear_376_1087" x1="67.2502" y1="72.4603" x2="19.0717" y2="24.2837" gradientUnits="userSpaceOnUse">
<stop stop-color="#006838"/>
<stop offset="0.54" stop-color="#006838" stop-opacity="0.77"/>
<stop offset="1" stop-color="#2FA66F"/>
</linearGradient>
<linearGradient id="paint2_linear_376_1087" x1="68.5759" y1="40.4433" x2="46.5155" y2="18.3829" gradientUnits="userSpaceOnUse">
<stop stop-opacity="0.64"/>
<stop offset="0.26" stop-opacity="0.65"/>
<stop offset="0.66" stop-opacity="0.7"/>
<stop offset="1" stop-opacity="0.21"/>
</linearGradient>
<linearGradient id="paint3_linear_376_1087" x1="53.4225" y1="66.9115" x2="32.2153" y2="45.7043" gradientUnits="userSpaceOnUse">
<stop stop-color="#006838"/>
<stop offset="0.57" stop-color="white"/>
<stop offset="1" stop-color="white"/>
</linearGradient>
<clipPath id="clip0_376_1087">
<rect width="91" height="91" fill="white" transform="translate(0 0.53125)"/>
</clipPath>
</defs>
</svg>
