<svg width="65" height="43" viewBox="0 0 65 43" fill="none" xmlns="http://www.w3.org/2000/svg">
<g clip-path="url(#clip0_318_5522)">
<path d="M23.1953 11.458C25.2137 11.1001 28.5296 11.744 30.8594 13.6895C30.9625 13.7756 30.9754 13.9285 30.8896 14.0312V14.0322C30.8043 14.1342 30.6499 14.1482 30.5469 14.0625H30.5459C29.4422 13.1406 28.1023 12.5283 26.8135 12.1865C25.5291 11.8459 24.2578 11.7636 23.2803 11.9365C22.9325 11.9982 22.6134 12.0947 22.3477 12.2266C22.0893 12.3548 21.8392 12.538 21.6895 12.7969L14.7324 24.8369C13.886 26.3033 14.3897 28.1845 15.8574 29.0312L32.6572 38.7246C32.7735 38.7921 32.8126 38.9403 32.7461 39.0557C32.701 39.1332 32.6212 39.1776 32.5352 39.1777H32.5342C32.4941 39.1777 32.4527 39.1673 32.4131 39.1445H32.4141L15.6143 29.4512C13.9154 28.4711 13.3312 26.2922 14.3115 24.5947L21.2676 12.5547C21.5608 12.0471 22.1855 11.6371 23.1953 11.458ZM36.4541 20.042C36.5217 19.9252 36.6711 19.8856 36.7861 19.9521L36.7871 19.9531L37.4482 20.334L37.4512 20.3359L41.8438 22.8203C41.9603 22.8862 42.001 23.0334 41.9346 23.1504V23.1514C41.8902 23.2296 41.8084 23.2743 41.7236 23.2744C41.6831 23.2744 41.6416 23.2647 41.6016 23.2422H41.6025L37.209 20.7568L36.5439 20.373C36.4272 20.3055 36.388 20.157 36.4541 20.042Z" fill="#2A2A2A" stroke="black"/>
<path d="M41.5127 22.9104C41.5802 22.7937 41.7287 22.7541 41.8457 22.8215L49.3857 27.1711C49.5018 27.2383 49.5414 27.3876 49.4746 27.5032L47.1777 31.4778C47.1321 31.5563 47.0514 31.5999 46.9668 31.5999C46.9464 31.5999 46.9256 31.5974 46.9053 31.592L46.8447 31.5676L39.3057 27.217C39.1888 27.1492 39.1497 27.0006 39.2158 26.886C39.283 26.7697 39.4318 26.7297 39.5488 26.7971L46.4443 30.7756L46.877 31.0256L47.127 30.593L48.6816 27.9036L48.9316 27.47L48.498 27.22L41.6025 23.2415C41.5001 23.1821 41.4576 23.0608 41.4932 22.9543L41.5127 22.9104Z" fill="#2A2A2A" stroke="black"/>
<path d="M39.2168 26.8865C39.2756 26.7846 39.3971 26.7411 39.5049 26.7771L39.5498 26.7976L47.6172 31.4519C47.7335 31.5193 47.7726 31.6675 47.7061 31.783L45.4102 35.7576C45.3771 35.8143 45.3234 35.855 45.2617 35.8718C45.2406 35.8774 45.2188 35.8796 45.1982 35.8796C45.1769 35.8796 45.156 35.8772 45.1357 35.8718L45.0771 35.8484L37.0098 31.1931C36.9075 31.134 36.8647 31.0127 36.9004 30.906L36.9199 30.8621C36.9793 30.76 37.1004 30.7167 37.208 30.7527L37.2529 30.7732L44.6768 35.0564L45.1094 35.3064L45.3594 34.8728L46.9131 32.1833L47.1631 31.7507L46.7305 31.5007L39.3066 27.2175C39.1899 27.1498 39.1509 27.0011 39.2168 26.8865Z" fill="#2A2A2A" stroke="black"/>
<path d="M36.9199 30.8621C36.9877 30.7453 37.1361 30.7058 37.2529 30.7732L43.7373 34.5144C43.8532 34.5811 43.8934 34.729 43.8262 34.8455L41.5293 38.821V38.822C41.4977 38.8768 41.4446 38.9175 41.3818 38.9343L41.3799 38.9353C41.361 38.9404 41.3399 38.9431 41.3184 38.9431L41.2559 38.9343C41.2352 38.9288 41.2143 38.9203 41.1943 38.9089H41.1934L34.7129 35.1687C34.596 35.1009 34.557 34.9524 34.623 34.8376C34.6818 34.736 34.803 34.6921 34.9111 34.7283L34.9561 34.7488L40.7959 38.1189L41.2285 38.3679L41.4785 37.9353L43.0332 35.2468L43.2832 34.8132L42.8496 34.5632L37.0098 31.1931C36.8932 31.1258 36.8538 30.9772 36.9199 30.8621Z" fill="#2A2A2A" stroke="black"/>
<path d="M34.6221 34.8376C34.6808 34.736 34.802 34.6921 34.9102 34.7283L34.9551 34.7488L39.8574 37.5769C39.9132 37.6095 39.9529 37.6625 39.9688 37.7224L39.9697 37.7263C39.9859 37.7861 39.9783 37.8513 39.9463 37.908L37.6484 41.8845L37.6475 41.8865C37.6047 41.9612 37.5242 42.0056 37.4375 42.0056C37.3959 42.0056 37.3543 41.9952 37.3164 41.9734L32.415 39.1453C32.2982 39.0777 32.2592 38.9291 32.3252 38.8142C32.3927 38.6975 32.541 38.6569 32.6582 38.7244L36.916 41.1814L37.3486 41.4314L37.5986 40.9988L39.1533 38.3093L39.4033 37.8757L38.9697 37.6257L34.7109 35.1687C34.609 35.1091 34.567 34.9877 34.6025 34.8816L34.6221 34.8376ZM10.7412 2.97534C10.8083 2.85981 10.9563 2.82001 11.0732 2.88745L17.8145 6.77612C17.9307 6.84329 17.9701 6.99244 17.9033 7.10815L7.73828 24.7039C7.69307 24.7817 7.61082 24.8259 7.52539 24.8259C7.4846 24.8259 7.44327 24.8156 7.40723 24.7947L7.40527 24.7937L0.664062 20.9041H0.663086C0.621308 20.88 0.587816 20.8439 0.566406 20.8005L0.549805 20.7556C0.53372 20.6909 0.543849 20.6261 0.574219 20.574L0.575195 20.573L10.7402 2.97632L10.7412 2.97534ZM10.791 3.86206L1.36719 20.1716L1.11719 20.6052L1.55078 20.8552L7.00488 24.0017L7.4375 24.2517L7.6875 23.8191L17.1104 7.50854L17.3604 7.07495L16.9268 6.82495L11.4736 3.67847L11.041 3.42847L10.791 3.86206Z" fill="#2A2A2A" stroke="black"/>
<path d="M33.5908 11.4075C35.6809 10.1972 37.9839 9.67014 41.2305 10.0764H41.2334C41.2355 10.0767 41.2388 10.077 41.2422 10.0774V10.0764C41.4905 10.1117 41.7751 10.1242 42.0176 10.134C42.4282 10.1508 42.7928 10.1678 43.1055 10.2551C43.3639 10.3273 43.5511 10.4381 43.6807 10.6145L43.7334 10.6946L50.6885 22.7346C51.162 23.5534 51.2873 24.51 51.04 25.4319C50.793 26.3534 50.2057 27.1189 49.3857 27.592C49.347 27.6143 49.3052 27.6243 49.2656 27.6243C49.2004 27.6242 49.1385 27.5994 49.0928 27.554L49.0537 27.5022C48.9959 27.4009 49.0187 27.2753 49.1025 27.2004L49.1426 27.1711C49.8517 26.7625 50.357 26.0981 50.5703 25.3069V25.3059C50.7824 24.5132 50.6746 23.684 50.2656 22.9768L43.332 10.9739L43.2559 10.8401L43.1172 10.7737L43.0371 10.7405C42.9572 10.712 42.8774 10.6961 42.8184 10.6858C42.7282 10.67 42.6294 10.658 42.5352 10.6497C42.3464 10.6329 42.1419 10.6252 41.999 10.6194C41.7076 10.6074 41.4356 10.5963 41.1719 10.5588V10.5579L41.1631 10.5569C38.0881 10.173 35.8311 10.6668 33.7324 11.9006C31.6699 13.1133 29.7763 15.035 27.4141 17.427C26.2524 18.6033 24.9422 19.9313 23.4434 21.3479L23.4414 21.3499C23.4219 21.3685 23.397 21.3851 23.3682 21.3967H23.3672C22.7698 21.6379 22.4276 22.3143 22.3369 22.968C22.2537 23.557 22.3457 24.4654 23.041 25.0051C23.4388 25.314 23.9499 25.4238 24.4893 25.4026C25.0293 25.3813 25.6353 25.227 26.2783 24.9641C26.4051 24.9126 26.5456 24.9743 26.5957 25.0969L26.5967 25.0989C26.6471 25.2212 26.5895 25.363 26.4639 25.4143H26.4629C24.3852 26.2641 23.2788 25.8047 22.7422 25.3879C22.077 24.8716 21.7114 23.9305 21.8545 22.9026C21.9813 21.989 22.4709 21.2918 23.0762 20.9954L23.1445 20.9612L23.2002 20.9094C24.6577 19.5289 25.9388 18.2296 27.0674 17.0862C29.543 14.5796 31.4671 12.6373 33.5908 11.4075ZM9.00781 21.5344C9.07524 21.4178 9.22378 21.3781 9.34082 21.4456L14.6445 24.5061H14.6455C14.7611 24.5729 14.8006 24.7208 14.7334 24.8372V24.8381C14.69 24.9138 14.6091 24.9592 14.5234 24.9592C14.4817 24.9592 14.4397 24.9486 14.4004 24.926H14.4014L9.09766 21.8655L9.05762 21.8362C8.97296 21.7615 8.94943 21.636 9.00781 21.5344ZM53.9277 1.02759C54.0444 0.960339 54.1924 0.999976 54.2598 1.11646L64.4258 18.7131C64.4467 18.7493 64.4569 18.7874 64.458 18.8254V18.8401C64.4555 18.9229 64.4114 19.0006 64.3359 19.0442L57.5957 22.9338C57.5589 22.955 57.5159 22.9651 57.4736 22.9651C57.451 22.965 57.4307 22.9632 57.4121 22.9583H57.4111C57.3479 22.9413 57.2947 22.8999 57.2637 22.8459L57.2627 22.845L47.0977 5.24829L47.0967 5.24634L47.0771 5.20435C47.067 5.17471 47.0624 5.14287 47.0645 5.1106L47.0723 5.06274C47.0904 4.99941 47.1314 4.9483 47.1855 4.91724L47.1865 4.91626L53.9268 1.02661L53.9277 1.02759ZM53.5273 1.8186L48.0732 4.96606L47.6396 5.21606L47.8896 5.64868L57.3135 21.9592L57.5635 22.3918L57.9961 22.1418L63.4502 18.9954L63.8828 18.7454L63.6328 18.3118L54.21 2.0022L53.96 1.56958L53.5273 1.8186ZM15.79 9.79224C15.8576 9.67658 16.0063 9.63741 16.123 9.70435L21.4277 12.7649C21.5439 12.832 21.5837 12.9805 21.5176 13.0959C21.4726 13.1735 21.3909 13.2181 21.3057 13.218L21.2441 13.2102C21.2239 13.2048 21.2034 13.1962 21.1836 13.1848H21.1826L15.8799 10.1252C15.7631 10.0578 15.7244 9.90854 15.791 9.79321L15.79 9.79224Z" fill="#2A2A2A" stroke="black"/>
<path d="M37.9619 19.26C38.0823 19.2014 38.2276 19.2506 38.2871 19.3704V19.3713C38.3458 19.4918 38.2961 19.6366 38.1758 19.6956L26.4785 25.4075H26.4775C26.4431 25.4243 26.4072 25.4309 26.3721 25.4309C26.2802 25.4307 26.194 25.3803 26.1523 25.2952C26.0942 25.1759 26.1432 25.0303 26.2646 24.9709L37.9619 19.26ZM55.6602 19.5852C55.7778 19.5177 55.9262 19.5581 55.9932 19.6741V19.675C56.0598 19.7905 56.0207 19.9379 55.9043 20.0051H55.9033L50.6006 23.0657C50.5592 23.0893 50.5171 23.0989 50.4785 23.0989C50.3926 23.0988 50.3114 23.0543 50.2666 22.9778C50.2082 22.8763 50.2308 22.7493 50.3154 22.6741L50.3555 22.6458L55.6602 19.5852ZM48.8779 7.84399C48.993 7.77742 49.1417 7.81727 49.209 7.93384L49.21 7.93481C49.2681 8.03456 49.2464 8.16117 49.1611 8.23657L49.1211 8.26489L43.8184 11.3245C43.7773 11.348 43.7355 11.3587 43.6953 11.3586L43.6318 11.3499C43.5913 11.3391 43.5539 11.3184 43.5234 11.2883L43.4834 11.2366C43.4165 11.1203 43.4563 10.9725 43.5723 10.9055H43.5732L48.8779 7.84497V7.84399Z" fill="#2A2A2A" stroke="black"/>
</g>
<defs>
<clipPath id="clip0_318_5522">
<rect width="65" height="43" fill="white"/>
</clipPath>
</defs>
</svg>
